<svg id="Layer_1" data-name="Layer 1" xmlns="http://www.w3.org/2000/svg" xmlns:xlink="http://www.w3.org/1999/xlink" viewBox="0 0 479.27 475.15"><defs><style>.cls-1,.cls-6{fill:none;}.cls-18,.cls-2{fill:#eee;}.cls-19,.cls-2,.cls-6{stroke:#000;stroke-miterlimit:10;}.cls-19,.cls-2{stroke-width:3px;}.cls-19,.cls-3{fill:#afafaf;}.cls-4{clip-path:url(#clip-path);}.cls-5,.cls-7{fill:#900;}.cls-6{stroke-width:2px;}.cls-7{font-size:100px;letter-spacing:0.06em;}.cls-18,.cls-7{font-family:SquareSlabserif711BT-Bold, SquareSlab711 Bd BT;font-weight:700;}.cls-8{letter-spacing:0.04em;}.cls-9{letter-spacing:0.05em;}.cls-10{letter-spacing:0.05em;}.cls-11{font-size:50px;letter-spacing:0.05em;}.cls-12{letter-spacing:0.05em;}.cls-13{letter-spacing:0.05em;}.cls-14{letter-spacing:0em;}.cls-15{letter-spacing:0.05em;}.cls-16{letter-spacing:0.04em;}.cls-17{letter-spacing:0.04em;}.cls-18{font-size:24px;letter-spacing:0.05em;}</style><clipPath id="clip-path" transform="translate(-76.97 -41.87)"><rect class="cls-1" x="284.37" y="24.43" width="438.99" height="438.99"/></clipPath></defs><title>2017_bama_tri_logo</title><path class="cls-2" d="M90.64,50.17H406.81a5,5,0,0,1,4.71,3.31l138,385.24a4.11,4.11,0,0,1,.25,1c.25,3-2,6.74-5,6.74L478,447c-.88,0-357.53-221.07-390-241.2a5,5,0,0,1-2.36-4.25V55.17A5,5,0,0,1,90.64,50.17Z" transform="translate(-76.97 -41.87)"/><path class="cls-3" d="M91,206H344.23a35.56,35.56,0,0,1,26,11.3L506.86,363.67,501,444l-20,3Z" transform="translate(-76.97 -41.87)"/><g class="cls-4"><g class="cls-4"><path class="cls-5" d="M550.91,375.59l-5.56-10.19a1.75,1.75,0,0,1-.22-.84v-12.1a1.75,1.75,0,0,0-.24-.88l-3-5.13a1.76,1.76,0,0,1-.24-.85l-3.93-211.29a1.73,1.73,0,0,1,0-.37l2.78-14.25A1.76,1.76,0,0,0,540,118l-4-3.25a1.76,1.76,0,0,1-.64-1.48l3.41-51a1.77,1.77,0,0,0-.14-.8l-2.55-6a1.76,1.76,0,0,0-.81-.87l-12.92-6.7a1.75,1.75,0,0,1-.95-1.56V44.63a1.76,1.76,0,0,0-1.76-1.76H507.38a1.76,1.76,0,0,0-1.76,1.76v1.66a1.75,1.75,0,0,1-.95,1.56l-12.93,6.7a1.75,1.75,0,0,0-.8.85l-2.65,6a1.76,1.76,0,0,0-.14.83l3.46,51a1.75,1.75,0,0,1-.64,1.48L487,118a1.76,1.76,0,0,0-.61,1.69l2.77,14.25a1.76,1.76,0,0,1,0,.37L484.9,345.55a1.76,1.76,0,0,1-.28.92l-3.3,5.07a1.75,1.75,0,0,0-.28,1v12.11a1.75,1.75,0,0,1-.17.75l-4.76,10.14a1.76,1.76,0,0,1-1.59,1h-1A1.76,1.76,0,0,0,472,379l3.62,7.6a1.75,1.75,0,0,1,.17.76v58.49a1.76,1.76,0,0,0,1.76,1.76h72a1.76,1.76,0,0,0,1.76-1.76V387.37a1.75,1.75,0,0,1,.17-.76l3.62-7.6a1.76,1.76,0,0,0-1.58-2.51h-1a1.76,1.76,0,0,1-1.54-.91m-47-256.33h-3.51a1.76,1.76,0,0,1-1.76-1.76V75.36a1.76,1.76,0,0,1,1.76-1.76h3.51a1.76,1.76,0,0,1,1.76,1.76V117.5a1.76,1.76,0,0,1-1.76,1.76m10.54,0h-2.63A1.76,1.76,0,0,1,510,117.5V75.36a1.76,1.76,0,0,1,1.76-1.76h2.63a1.76,1.76,0,0,1,1.76,1.76V117.5a1.76,1.76,0,0,1-1.76,1.76m12.29,0h-3.51a1.76,1.76,0,0,1-1.76-1.76V75.36a1.76,1.76,0,0,1,1.76-1.76h3.51a1.76,1.76,0,0,1,1.76,1.76V117.5a1.76,1.76,0,0,1-1.76,1.76" transform="translate(-76.97 -41.87)"/><path class="cls-6" d="M550.91,375.59l-5.56-10.19a1.75,1.75,0,0,1-.22-.84v-12.1a1.75,1.75,0,0,0-.24-.88l-3-5.13a1.76,1.76,0,0,1-.24-.85l-3.93-211.29a1.73,1.73,0,0,1,0-.37l2.78-14.25A1.76,1.76,0,0,0,540,118l-4-3.25a1.76,1.76,0,0,1-.64-1.48l3.41-51a1.77,1.77,0,0,0-.14-.8l-2.55-6a1.76,1.76,0,0,0-.81-.87l-12.92-6.7a1.75,1.75,0,0,1-.95-1.56V44.63a1.76,1.76,0,0,0-1.76-1.76H507.38a1.76,1.76,0,0,0-1.76,1.76v1.66a1.75,1.75,0,0,1-.95,1.56l-12.93,6.7a1.75,1.75,0,0,0-.8.85l-2.65,6a1.76,1.76,0,0,0-.14.83l3.46,51a1.75,1.75,0,0,1-.64,1.48L487,118a1.76,1.76,0,0,0-.61,1.69l2.77,14.25a1.76,1.76,0,0,1,0,.37L484.9,345.55a1.76,1.76,0,0,1-.28.92l-3.3,5.07a1.75,1.75,0,0,0-.28,1v12.11a1.75,1.75,0,0,1-.17.75l-4.76,10.14a1.76,1.76,0,0,1-1.59,1h-1A1.76,1.76,0,0,0,472,379l3.62,7.6a1.75,1.75,0,0,1,.17.76v58.49a1.76,1.76,0,0,0,1.76,1.76h72a1.76,1.76,0,0,0,1.76-1.76V387.37a1.75,1.75,0,0,1,.17-.76l3.62-7.6a1.76,1.76,0,0,0-1.58-2.51h-1A1.76,1.76,0,0,1,550.91,375.59Zm-47-256.33h-3.51a1.76,1.76,0,0,1-1.76-1.76V75.36a1.76,1.76,0,0,1,1.76-1.76h3.51a1.76,1.76,0,0,1,1.76,1.76V117.5A1.76,1.76,0,0,1,503.86,119.26Zm10.54,0h-2.63A1.76,1.76,0,0,1,510,117.5V75.36a1.76,1.76,0,0,1,1.76-1.76h2.63a1.76,1.76,0,0,1,1.76,1.76V117.5A1.76,1.76,0,0,1,514.4,119.26Zm12.29,0h-3.51a1.76,1.76,0,0,1-1.76-1.76V75.36a1.76,1.76,0,0,1,1.76-1.76h3.51a1.76,1.76,0,0,1,1.76,1.76V117.5A1.76,1.76,0,0,1,526.69,119.26Z" transform="translate(-76.97 -41.87)"/></g></g><text class="cls-7" transform="translate(33.36 96.53)">B<tspan class="cls-8" x="66.68" y="0">A</tspan><tspan class="cls-9" x="137.18" y="0">M</tspan><tspan class="cls-10" x="227.33" y="0">A</tspan><tspan class="cls-11"><tspan x="2.24" y="54">T</tspan><tspan class="cls-12" x="37.66" y="54">R</tspan><tspan class="cls-13" x="72.23" y="54">I</tspan><tspan class="cls-14" x="92.47" y="54">A</tspan><tspan x="125.25" y="54">T</tspan><tspan class="cls-15" x="160.67" y="54">H</tspan><tspan class="cls-16" x="195.52" y="54">L</tspan><tspan class="cls-17" x="226.09" y="54">O</tspan><tspan class="cls-10" x="255.8" y="54">N</tspan></tspan></text><text class="cls-18" transform="translate(64.34 188.45)">TUSCALOOSA, AL</text><circle class="cls-19" cx="235.08" cy="298.98" r="37.5"/><path d="M321.93,328.62a4.9,4.9,0,1,0-4-5.62A4.89,4.89,0,0,0,321.93,328.62Z" transform="translate(-76.97 -41.87)"/><path d="M330,342.18a10.35,10.35,0,0,0-4-.08l-1.5-3.91h2.08a2,2,0,0,0,0-4.08h-6.76s-2.31-6.5-2.55-6.94a3.67,3.67,0,0,0-5-1.42l-11.79,6.57a4.07,4.07,0,0,0,1.57,7.2l7.29,3.46-.32,8.73a2,2,0,0,0,2,2.11H311a2,2,0,0,0,2.06-2l.37-10.07a2,2,0,0,0-1.16-1.92l-5.49-2.61-.15,0,8.29-4.62.23.65,1.29,3.53a2,2,0,0,0,1.9,1.34h3.07a1.25,1.25,0,0,0,.06.24l1.75,4.55a10.4,10.4,0,1,0,6.77-.8ZM335.14,354a7.55,7.55,0,1,1-10.88-8.3l2.48,6.47a1.43,1.43,0,0,0,1.85.82,1.43,1.43,0,0,0,.82-1.85l-2.4-6.27a7.46,7.46,0,0,1,2.38.13A7.56,7.56,0,0,1,335.14,354Z" transform="translate(-76.97 -41.87)"/><path d="M296.34,342a10.41,10.41,0,1,0,10.41,10.41A10.42,10.42,0,0,0,296.34,342Zm0,18a7.56,7.56,0,1,1,7.55-7.56A7.57,7.57,0,0,1,296.34,360Z" transform="translate(-76.97 -41.87)"/><circle class="cls-19" cx="321.54" cy="348.13" r="37.5"/><circle cx="333.13" cy="332.52" r="4.84"/><path d="M419.19,384.89a2,2,0,0,0-2.68-1l-7.87,3.6-1.08-6.81a2,2,0,0,0-.62-1.16,2,2,0,0,0-1-1l-8.69-4.09a2,2,0,0,0-2.76,1.15l-2.88,8.12a2,2,0,0,0,1.23,2.58,2.09,2.09,0,0,0,.67.11,2,2,0,0,0,1.9-1.34l2.13-6,3.08,1.45-6.7,8.51a2.15,2.15,0,0,0-.33.3l-15.48,17.81a2,2,0,0,0,3.05,2.65l13.17-15.15,6.19,4.53-9.37,4.38a2,2,0,1,0,1.71,3.66l12.46-5.83a2,2,0,0,0,.34-3.46l-6.14-4.5,5-6.3.58,3.64a2,2,0,0,0,2.83,1.52l10.29-4.7A2,2,0,0,0,419.19,384.89Z" transform="translate(-76.97 -41.87)"/><circle class="cls-19" cx="148.63" cy="244.23" r="37.5"/><path d="M231.17,281.94a5.11,5.11,0,1,0,4.8-5.41A5.11,5.11,0,0,0,231.17,281.94Z" transform="translate(-76.97 -41.87)"/><path d="M200.79,286.19a4.31,4.31,0,0,1,2.94,1.78c1.43,1.93,4.42,6,9.27,5.19,2.13-.34,4-2.08,5.72-3.77s3.71-3.55,5.49-3.38c1.38.13,2.48,1.33,3.76,2.71,1.88,2,4.2,4.54,8.34,4.54h.28c3.86-.1,6.18-2.35,8.23-4.33,1.82-1.76,3.24-3.15,5.49-3.08a1.49,1.49,0,0,0,.09-3c-3.49-.11-5.7,2-7.65,3.92s-3.53,3.42-6.24,3.49a6.09,6.09,0,0,1-4.1-1.4l-2.63-4.54a1.52,1.52,0,0,0-.15-.62,6.3,6.3,0,0,0-1.37-1.85l-3.51-6.41,10.09-3.57a2.13,2.13,0,0,0-1.42-4L221,272.27a2.13,2.13,0,0,0-1.16,3l3.59,6.54L207,287.34c-.3-.37-.6-.76-.89-1.15a7.3,7.3,0,0,0-5.24-3,1.49,1.49,0,0,0-.11,3Zm31.61,2.69a11.81,11.81,0,0,1-1.13-1A12.65,12.65,0,0,0,232.41,288.88Z" transform="translate(-76.97 -41.87)"/><path d="M242.74,296.48c-1.82,1.76-3.53,3.42-6.24,3.49-2.95.08-4.6-1.69-6.34-3.57-1.55-1.68-3.16-3.42-5.66-3.66-3.15-.3-5.64,2.09-7.85,4.19-1.44,1.37-2.91,2.79-4.13,3-2.83.45-4.72-1.74-6.4-4a7.28,7.28,0,0,0-5.24-3,1.49,1.49,0,0,0-.13,3,4.3,4.3,0,0,1,3,1.78c1.44,1.94,4.42,6,9.28,5.19,2.13-.34,3.95-2.08,5.72-3.77s3.72-3.56,5.49-3.38c1.38.13,2.48,1.33,3.76,2.71,1.87,2,4.19,4.54,8.33,4.54h.27c3.86-.1,6.19-2.35,8.24-4.33,1.78-1.72,3.2-3.09,5.34-3.09h.15a1.49,1.49,0,0,0,.09-3C246.92,292.45,244.69,294.6,242.74,296.48Z" transform="translate(-76.97 -41.87)"/><text class="cls-18" transform="translate(206.84 214.47)">2017</text></svg>